# xmcd
#
# Track frame offsets:
#	150
#	15150
#	25602
#	37483
#	45800
#	64903
#	76590
#	90130
#	97590
#	109688
#	123113
#	135325
#
# Disc length: 2098 seconds
#
# Revision: 1
# Processed by: cddbd v1.5.2PL0 Copyright (c) Steve Scherf et al.
# Submitted via: audiograbber 1.83.01
#
DISCID=7108300c
DTITLE=Love and Hate - There are no heroes out there
DYEAR=2008
DGENRE=Rock
TTITLE0=Way of hate
TTITLE1=Streetcore Eastside
TTITLE2=Make my war
TTITLE3=By your side
TTITLE4=Good Old Germany
TTITLE5=Undershirts
TTITLE6=Working class heroes
TTITLE7=Rowdy
TTITLE8=Madheads
TTITLE9=Triple6-Hate-Crew
TTITLE10=Nothing remains
TTITLE11=Love and Hate
EXTD=
EXTT0=
EXTT1=
EXTT2=
EXTT3=
EXTT4=
EXTT5=
EXTT6=
EXTT7=
EXTT8=
EXTT9=
EXTT10=
EXTT11=
PLAYORDER=
